<svg id="visual" viewBox="0 0 960 540" width="960" height="540" xmlns="http://www.w3.org/2000/svg" xmlns:xlink="http://www.w3.org/1999/xlink" version="1.1"><path d="M0 367L22.8 360C45.7 353 91.3 339 137 341.3C182.7 343.7 228.3 362.3 274 372.8C319.7 383.3 365.3 385.7 411.2 377.5C457 369.3 503 350.7 548.8 351.2C594.7 351.7 640.3 371.3 686 379.7C731.7 388 777.3 385 823 375.5C868.7 366 914.3 350 937.2 342L960 334L960 541L937.2 541C914.3 541 868.7 541 823 541C777.3 541 731.7 541 686 541C640.3 541 594.7 541 548.8 541C503 541 457 541 411.2 541C365.3 541 319.7 541 274 541C228.3 541 182.7 541 137 541C91.3 541 45.7 541 22.8 541L0 541Z" fill="#ffffff"></path><path d="M0 389L22.8 385.5C45.7 382 91.3 375 137 376.5C182.7 378 228.3 388 274 400.7C319.7 413.3 365.3 428.7 411.2 433.5C457 438.3 503 432.7 548.8 422.2C594.7 411.7 640.3 396.3 686 389.3C731.7 382.3 777.3 383.7 823 392.5C868.7 401.3 914.3 417.7 937.2 425.8L960 434L960 541L937.2 541C914.3 541 868.7 541 823 541C777.3 541 731.7 541 686 541C640.3 541 594.7 541 548.8 541C503 541 457 541 411.2 541C365.3 541 319.7 541 274 541C228.3 541 182.7 541 137 541C91.3 541 45.7 541 22.8 541L0 541Z" fill="#ffffff"></path><path d="M0 428L22.8 432.3C45.7 436.7 91.3 445.3 137 448.7C182.7 452 228.3 450 274 451.5C319.7 453 365.3 458 411.2 461.3C457 464.7 503 466.3 548.8 466.8C594.7 467.3 640.3 466.7 686 463.8C731.7 461 777.3 456 823 447.8C868.7 439.7 914.3 428.3 937.2 422.7L960 417L960 541L937.2 541C914.3 541 868.7 541 823 541C777.3 541 731.7 541 686 541C640.3 541 594.7 541 548.8 541C503 541 457 541 411.2 541C365.3 541 319.7 541 274 541C228.3 541 182.7 541 137 541C91.3 541 45.7 541 22.8 541L0 541Z" fill="#ffffff"></path><path d="M0 496L22.8 496.5C45.7 497 91.3 498 137 493.7C182.7 489.3 228.3 479.7 274 479.8C319.7 480 365.3 490 411.2 491.3C457 492.7 503 485.3 548.8 485.7C594.7 486 640.3 494 686 492.8C731.7 491.7 777.3 481.3 823 483C868.7 484.7 914.3 498.3 937.2 505.2L960 512L960 541L937.2 541C914.3 541 868.7 541 823 541C777.3 541 731.7 541 686 541C640.3 541 594.7 541 548.8 541C503 541 457 541 411.2 541C365.3 541 319.7 541 274 541C228.3 541 182.7 541 137 541C91.3 541 45.7 541 22.8 541L0 541Z" fill="#ffffff"></path></svg>