<svg id="visual" viewBox="0 0 960 540" width="960" height="540" xmlns="http://www.w3.org/2000/svg" xmlns:xlink="http://www.w3.org/1999/xlink" version="1.1"><rect x="0" y="0" width="960" height="540" fill="#d3a2a1"></rect><path d="M0 399L22.8 392.8C45.7 386.7 91.3 374.3 137 372.3C182.7 370.3 228.3 378.7 274 376.8C319.7 375 365.3 363 411.2 364.3C457 365.7 503 380.3 548.8 379.2C594.7 378 640.3 361 686 348.3C731.7 335.7 777.3 327.3 823 324.3C868.7 321.3 914.3 323.7 937.2 324.8L960 326L960 541L937.2 541C914.3 541 868.7 541 823 541C777.3 541 731.7 541 686 541C640.3 541 594.7 541 548.8 541C503 541 457 541 411.2 541C365.3 541 319.7 541 274 541C228.3 541 182.7 541 137 541C91.3 541 45.7 541 22.8 541L0 541Z" fill="#ffe4e3"></path><path d="M0 381L22.8 378.3C45.7 375.7 91.3 370.3 137 379.5C182.7 388.7 228.3 412.3 274 416.3C319.7 420.3 365.3 404.7 411.2 393C457 381.3 503 373.7 548.8 381.3C594.7 389 640.3 412 686 424.7C731.7 437.3 777.3 439.7 823 437.5C868.7 435.3 914.3 428.7 937.2 425.3L960 422L960 541L937.2 541C914.3 541 868.7 541 823 541C777.3 541 731.7 541 686 541C640.3 541 594.7 541 548.8 541C503 541 457 541 411.2 541C365.3 541 319.7 541 274 541C228.3 541 182.7 541 137 541C91.3 541 45.7 541 22.8 541L0 541Z" fill="#ffedec"></path><path d="M0 417L22.8 418.7C45.7 420.3 91.3 423.7 137 429.5C182.7 435.3 228.3 443.7 274 442.3C319.7 441 365.3 430 411.2 430.3C457 430.7 503 442.3 548.8 446.3C594.7 450.3 640.3 446.7 686 443.3C731.7 440 777.3 437 823 440.7C868.7 444.3 914.3 454.7 937.2 459.8L960 465L960 541L937.2 541C914.3 541 868.7 541 823 541C777.3 541 731.7 541 686 541C640.3 541 594.7 541 548.8 541C503 541 457 541 411.2 541C365.3 541 319.7 541 274 541C228.3 541 182.7 541 137 541C91.3 541 45.7 541 22.8 541L0 541Z" fill="#fff6f6"></path><path d="M0 502L22.8 503C45.7 504 91.3 506 137 503.8C182.7 501.7 228.3 495.3 274 489.8C319.7 484.3 365.3 479.7 411.2 478.5C457 477.3 503 479.7 548.8 482.7C594.7 485.7 640.3 489.3 686 489.5C731.7 489.7 777.3 486.3 823 484.2C868.7 482 914.3 481 937.2 480.5L960 480L960 541L937.2 541C914.3 541 868.7 541 823 541C777.3 541 731.7 541 686 541C640.3 541 594.7 541 548.8 541C503 541 457 541 411.2 541C365.3 541 319.7 541 274 541C228.3 541 182.7 541 137 541C91.3 541 45.7 541 22.8 541L0 541Z" fill="#ffffff"></path></svg>